<svg width="33.000000" height="18.000000" viewBox="0 0 33 18" fill="none" xmlns="http://www.w3.org/2000/svg" xmlns:xlink="http://www.w3.org/1999/xlink">
	<defs />
	<path id="合并" d="M2 4C3.10358 4 4 3.10358 4 2C4 0.896423 3.10358 0 2 0C0.896423 0 0 0.896423 0 2C0 3.10358 0.896423 4 2 4ZM31 0L9 0C7.89545 0 7 0.895447 7 2C7 3.10455 7.89545 4 9 4L31 4C32.1046 4 33 3.10455 33 2C33 0.895447 32.1046 0 31 0ZM2 11C3.10358 11 4 10.1036 4 9C4 7.89642 3.10358 7 2 7C0.896423 7 0 7.89642 0 9C0 10.1036 0.896423 11 2 11ZM9 7L31 7C32.1046 7 33 7.89545 33 9C33 10.1046 32.1046 11 31 11L9 11C7.89545 11 7 10.1046 7 9C7 7.89545 7.89545 7 9 7ZM4 16C4 17.1036 3.10358 18 2 18C0.896423 18 0 17.1036 0 16C0 14.8964 0.896423 14 2 14C3.10358 14 4 14.8964 4 16ZM31 14L9 14C7.89545 14 7 14.8954 7 16C7 17.1046 7.89545 18 9 18L31 18C32.1046 18 33 17.1046 33 16C33 14.8954 32.1046 14 31 14Z" clip-rule="evenodd" fill="#C4C4C4" fill-opacity="1.000000" fill-rule="evenodd" />
</svg>
